<?xml version="1.0" encoding="utf-8"?>
<!-- Generator: Adobe Illustrator 24.2.3, SVG Export Plug-In . SVG Version: 6.00 Build 0)  -->
<svg version="1.0" id="Layer_1" xmlns="http://www.w3.org/2000/svg" xmlns:xlink="http://www.w3.org/1999/xlink" x="0px" y="0px"
	 viewBox="0 0 1000.1 600.1" style="enable-background:new 0 0 1000.1 600.1;" xml:space="preserve">
<style type="text/css">
	.st0{fill:#F2F2F2;}
	.st1{fill:#2B463C;}
	.st2{font-family:'Arial-BoldMT';}
	.st3{font-size:38.1661px;}
	.st4{fill:none;stroke:#DDDDDD;stroke-width:4;}
	.st5{fill:#446D55;}
	.st6{fill:#6BA584;}
	.st7{fill:#91C6A8;}
	.st8{fill:#B1E5C6;}
	.st9{fill:#333333;}
	.st10{font-family:'ArialMT';}
	.st11{font-size:19.3469px;}
	.st12{fill:#666666;}
	.st13{font-size:16.5831px;}
	.st14{fill:url(#SVGID_1_);}
	.st15{fill:#E6B89C;}
	.st16{opacity:0.8;fill:#558B6E;enable-background:new    ;}
	.st17{fill:#FFFFFF;}
	.st18{font-size:13.8192px;}
	.st19{opacity:0.8;fill:#E6B89C;enable-background:new    ;}
</style>
<path class="st0" d="M983.9,600.1H16.3c-9,0-16.3-7.3-16.3-16.3V16.3C0,7.3,7.3,0,16.3,0h967.5c9,0,16.3,7.3,16.3,16.3v567.5
	C1000.1,592.8,992.8,600.1,983.9,600.1z"/>
<text transform="matrix(1 0 0 1 281.9604 59.993)" class="st1 st2 st3">Καιρός Funding Roadmap</text>
<line class="st4" x1="88.9" y1="300.1" x2="918" y2="300.1"/>
<circle class="st5" cx="158" cy="300.1" r="13.8"/>
<circle class="st6" cx="365.2" cy="300.1" r="13.8"/>
<circle class="st7" cx="572.5" cy="300.1" r="13.8"/>
<circle class="st8" cx="779.8" cy="300.1" r="13.8"/>
<text transform="matrix(1 0 0 1 117.0941 341.5577)" class="st9 st10 st11">Pre-Seed</text>
<text transform="matrix(1 0 0 1 120.849 369.1963)" class="st9 st10 st11">Q2 2025</text>
<text transform="matrix(1 0 0 1 138.5961 396.834)" class="st12 st10 st13">€10K</text>
<text transform="matrix(1 0 0 1 311.4633 341.5577)" class="st9 st10 st11">Seed Round</text>
<text transform="matrix(1 0 0 1 328.1371 369.1963)" class="st9 st10 st11">Q4 2025</text>
<text transform="matrix(1 0 0 1 345.8842 396.834)" class="st12 st10 st13">€60K</text>
<text transform="matrix(1 0 0 1 536.5121 341.5577)" class="st9 st10 st11">Series A</text>
<text transform="matrix(1 0 0 1 535.4252 369.1963)" class="st9 st10 st11">Q3 2026</text>
<text transform="matrix(1 0 0 1 548.5609 396.834)" class="st12 st10 st13">€500K</text>
<text transform="matrix(1 0 0 1 743.266 341.5577)" class="st9 st10 st11">Series B</text>
<text transform="matrix(1 0 0 1 742.7142 369.1963)" class="st9 st10 st11">Q2 2027</text>
<text transform="matrix(1 0 0 1 763.6957 396.834)" class="st12 st10 st13">€2M</text>
<linearGradient id="SVGID_1_" gradientUnits="userSpaceOnUse" x1="144.1" y1="265.55" x2="173.3139" y2="265.55">
	<stop  offset="0" style="stop-color:#FFB569"/>
	<stop  offset="1" style="stop-color:#E6B89C;stop-opacity:0.8"/>
</linearGradient>
<polygon class="st14" points="158,279.4 144.1,251.7 171.8,251.7 "/>
<text transform="matrix(1 0 0 1 82.183 237.9136)" class="st15 st2 st11">Current Position</text>
<g transform="translate(110, 80)">
	<path class="st16" d="M-0.4,54.3h96.7c3.9,0,6.9,3,6.9,6.9v69.1c0,3.9-3,6.9-6.9,6.9H-0.4c-3.9,0-6.9-3-6.9-6.9V61.2
		C-7.3,57.3-4.3,54.3-0.4,54.3z"/>
	<text transform="matrix(1 0 0 1 29.9926 88.8179)" class="st17 st2 st13">MVP</text>
	<text transform="matrix(1 0 0 1 18.3852 116.4566)" class="st17 st10 st18">Prototype</text>
</g>
<g transform="translate(260, 80)">
	<path class="st16" d="M56.9,54.3h96.7c3.9,0,6.9,3,6.9,6.9v69.1c0,3.9-3,6.9-6.9,6.9H56.9c-3.9,0-6.9-3-6.9-6.9V61.2
		C50,57.3,53,54.3,56.9,54.3z"/>
	<text transform="matrix(1 0 0 1 61.4916 88.8179)" class="st17 st2 st13">Production</text>
	<text transform="matrix(1 0 0 1 61.8539 116.4566)" class="st17 st10 st18">First 500 units</text>
</g>
<g transform="translate(410, 80)">
	<path class="st16" d="M114.2,54.3h96.7c3.9,0,6.9,3,6.9,6.9v69.1c0,3.9-3,6.9-6.9,6.9h-96.7c-3.9,0-6.9-3-6.9-6.9V61.2
		C107.3,57.3,110.3,54.3,114.2,54.3z"/>
	<text transform="matrix(1 0 0 1 135.808 88.8179)" class="st17 st2 st13">Market</text>
	<text transform="matrix(1 0 0 1 130.2699 116.4566)" class="st17 st10 st18">Expansion</text>
</g>
<g transform="translate(560, 80)">
	<path class="st16" d="M171.5,54.3h96.7c3.9,0,6.9,3,6.9,6.9v69.1c0,3.9-3,6.9-6.9,6.9h-96.7c-3.9,0-6.9-3-6.9-6.9V61.2
		C164.5,57.3,167.6,54.3,171.5,54.3z"/>
	<text transform="matrix(1 0 0 1 170.0727 88.8179)" class="st17 st2 st13">International</text>
	<text transform="matrix(1 0 0 1 197.1566 116.4566)" class="st17 st10 st18">Launch</text>
</g>
<g transform="translate(110, 300)">
	<path class="st19" d="M-0.4,138.3h96.7c3.9,0,6.9,3,6.9,6.9v69.1c0,3.9-3,6.9-6.9,6.9H-0.4c-3.9,0-6.9-3-6.9-6.9v-69.1
		C-7.3,141.3-4.3,138.3-0.4,138.3z"/>
	<text transform="matrix(1 0 0 1 30.9193 172.8409)" class="st9 st2 st13">NFC</text>
	<text transform="matrix(1 0 0 1 15.308 200.4786)" class="st9 st10 st18">Integration</text>
</g>
<g transform="translate(260, 300)">
	<path class="st19" d="M56.9,138.3h96.7c3.9,0,6.9,3,6.9,6.9v69.1c0,3.9-3,6.9-6.9,6.9H56.9c-3.9,0-6.9-3-6.9-6.9v-69.1
		C50,141.3,53,138.3,56.9,138.3z"/>
	<text transform="matrix(1 0 0 1 90.0375 172.8409)" class="st9 st2 st13">10K</text>
	<text transform="matrix(1 0 0 1 87.2055 200.4786)" class="st9 st10 st18">Users</text>
</g>
<g transform="translate(410, 300)">
	<path class="st19" d="M114.2,138.3h96.7c3.9,0,6.9,3,6.9,6.9v69.1c0,3.9-3,6.9-6.9,6.9h-96.7c-3.9,0-6.9-3-6.9-6.9v-69.1
		C107.3,141.3,110.3,138.3,114.2,138.3z"/>
	<text transform="matrix(1 0 0 1 147.3266 172.8409)" class="st9 st2 st13">50K</text>
	<text transform="matrix(1 0 0 1 144.4936 200.4786)" class="st9 st10 st18">Users</text>
</g>
<g transform="translate(560, 300)">
	<path class="st19" d="M171.5,138.3h96.7c3.9,0,6.9,3,6.9,6.9v69.1c0,3.9-3,6.9-6.9,6.9h-96.7c-3.9,0-6.9-3-6.9-6.9v-69.1
		C164.5,141.3,167.6,138.3,171.5,138.3z"/>
	<text transform="matrix(1 0 0 1 200.0033 172.8409)" class="st9 st2 st13">200K</text>
	<text transform="matrix(1 0 0 1 201.7826 200.4786)" class="st9 st10 st18">Users</text>
</g>
</svg>
