<?xml version="1.0" encoding="utf-8"?>
<!-- Generator: Adobe Illustrator 24.2.3, SVG Export Plug-In . SVG Version: 6.00 Build 0)  -->
<svg version="1.0" id="Layer_1" xmlns="http://www.w3.org/2000/svg" xmlns:xlink="http://www.w3.org/1999/xlink" x="0px" y="0px"
	 viewBox="0 0 833 500" style="enable-background:new 0 0 833 500;" xml:space="preserve">
<style type="text/css">
	.st0{fill:#F8F9FA;}
	.st1{fill:#2B463C;}
	.st2{font-family:'Arial-BoldMT';}
	.st3{font-size:38px;}
	.st4{fill:#666666;}
	.st5{font-family:'ArialMT';}
	.st6{font-size:21px;}
	.st7{fill:none;stroke:#666666;stroke-width:2;}
	.st8{font-size:14px;}
	.st9{font-size:12px;}
	.st10{fill:none;stroke:#DDDDDD;stroke-dasharray:5,5;}
	.st11{fill:#558B6E;}
	.st12{fill:none;stroke:#558B6E;stroke-width:3;}
	.st13{fill:#E6B89C;}
	.st14{fill:none;stroke:#E6B89C;stroke-width:3;stroke-dasharray:5,3;}
	.st15{fill:none;stroke:#2B463C;stroke-width:3;stroke-dasharray:10,2;}
	.st16{fill:#333333;}
	.st17{fill:none;stroke:#558B6E;stroke-dasharray:3,2;}
</style>
<rect class="st0" width="833" height="499.8"/>
<text transform="matrix(1 0 0 1 172.5001 40)" class="st1 st2 st3">Projected Revenue Growth</text>
<text transform="matrix(1 0 0 1 259.1475 60)" class="st4 st5 st6">(5-Year Projection in Thousands €)</text>
<line class="st7" x1="116.5" y1="400" x2="716.5" y2="400"/>
<line class="st7" x1="116.5" y1="400" x2="116.5" y2="100"/>
<text transform="matrix(1 0 0 1 146.5186 425)" class="st4 st5 st8">Year 1</text>
<text transform="matrix(1 0 0 1 271.5186 425)" class="st4 st5 st8">Year 2</text>
<text transform="matrix(1 0 0 1 396.5186 425)" class="st4 st5 st8">Year 3</text>
<text transform="matrix(1 0 0 1 521.5186 425)" class="st4 st5 st8">Year 4</text>
<text transform="matrix(1 0 0 1 646.5186 425)" class="st4 st5 st8">Year 5</text>
<text transform="matrix(1 0 0 1 99.8262 400)" class="st4 st5 st9">0</text>
<text transform="matrix(1 0 0 1 86.4785 340)" class="st4 st5 st9">500</text>
<text transform="matrix(1 0 0 1 76.4707 280)" class="st4 st5 st9">1,000</text>
<text transform="matrix(1 0 0 1 76.4707 220)" class="st4 st5 st9">1,500</text>
<text transform="matrix(1 0 0 1 76.4707 160)" class="st4 st5 st9">2,000</text>
<text transform="matrix(1 0 0 1 76.4707 100)" class="st4 st5 st9">2,500</text>
<line class="st10" x1="116.5" y1="340" x2="716.5" y2="340"/>
<line class="st10" x1="116.5" y1="280" x2="716.5" y2="280"/>
<line class="st10" x1="116.5" y1="220" x2="716.5" y2="220"/>
<line class="st10" x1="116.5" y1="160" x2="716.5" y2="160"/>
<line class="st10" x1="116.5" y1="100" x2="716.5" y2="100"/>
<circle class="st11" cx="166.5" cy="376" r="6"/>
<circle class="st11" cx="291.5" cy="328" r="6"/>
<circle class="st11" cx="416.5" cy="256" r="6"/>
<circle class="st11" cx="541.5" cy="184" r="6"/>
<circle class="st11" cx="666.5" cy="112" r="6"/>
<polyline class="st12" points="166.5,376 291.5,328 416.5,256 541.5,184 666.5,112 "/>
<circle class="st13" cx="166.5" cy="392" r="6"/>
<circle class="st13" cx="291.5" cy="371" r="6"/>
<circle class="st13" cx="416.5" cy="342" r="6"/>
<circle class="st13" cx="541.5" cy="314" r="6"/>
<circle class="st13" cx="666.5" cy="285" r="6"/>
<polyline class="st14" points="166.5,392 291.5,371 416.5,342 541.5,314 666.5,285 "/>
<circle class="st1" cx="166.5" cy="388" r="6"/>
<circle class="st1" cx="291.5" cy="375" r="6"/>
<circle class="st1" cx="416.5" cy="350" r="6"/>
<circle class="st1" cx="541.5" cy="324" r="6"/>
<circle class="st1" cx="666.5" cy="299" r="6"/>
<polyline class="st15" points="166.5,388 291.5,375 416.5,350 541.5,324 666.5,299 "/>
<rect x="123.4" y="133.5" class="st11" width="33.1" height="3"/>
<text transform="matrix(1 0 0 1 166.5 136.5)" class="st16 st5 st8">Total Revenue</text>
<rect x="123.4" y="158.5" class="st13" width="6.6" height="3"/>
<text transform="matrix(1 0 0 1 166.5 161.5)" class="st16 st5 st8">Subscription Revenue</text>
<rect x="123.4" y="183.5" class="st1" width="6.6" height="3"/>
<rect x="136.7" y="158.5" class="st13" width="6.6" height="3"/>
<rect x="136.7" y="183.5" class="st1" width="6.6" height="3"/>
<rect x="149.9" y="158.5" class="st13" width="6.6" height="3"/>
<rect x="149.9" y="183.5" class="st1" width="6.6" height="3"/>
<text transform="matrix(1 0 0 1 166.5 186.5)" class="st16 st5 st8">Physical Products</text>
<text transform="matrix(1 0 0 1 259.1475 300)" class="st11 st2 st9">Break-even</text>
<line class="st17" x1="291.5" y1="303" x2="291.5" y2="328"/>
<text transform="matrix(1 0 0 1 499.0693 140)" class="st11 st2 st9">Int&apos;l Expansion</text>
<line class="st17" x1="541.5" y1="143" x2="541.5" y2="184"/>
</svg>
