<?xml version="1.0" encoding="utf-8"?>
<!-- Generator: Adobe Illustrator 24.2.3, SVG Export Plug-In . SVG Version: 6.00 Build 0)  -->
<svg version="1.0" id="Layer_1" xmlns="http://www.w3.org/2000/svg" xmlns:xlink="http://www.w3.org/1999/xlink" x="0px" y="0px"
	 viewBox="0 0 799.9 600" style="enable-background:new 0 0 799.9 600;" xml:space="preserve">
<style type="text/css">
	.st0{fill:#F2F2F2;}
	.st1{fill:#2B463C;}
	.st2{font-family:'Arial-BoldMT';}
	.st3{font-size:38px;}
	.st4{fill:#666666;}
	.st5{font-family:'ArialMT';}
	.st6{font-size:23.3858px;}
	.st7{fill:#333333;}
	.st8{font-size:17.3006px;}
	.st9{fill:#334940;}
	.st10{fill:#F8DCC4;}
	.st11{fill:#E5B79C;}
	.st12{fill:#FFFFFF;}
	.st13{font-family:'ArialNarrow-Bold';}
	.st14{font-size:15.1395px;}
	.st15{fill:#638A73;}
	.st16{fill:#D0D1D1;}
	.st17{fill:none;}
</style>
<path class="st0" d="M771.5,600H28.4C12.7,600,0,587.3,0,571.6V28.4C0,12.7,12.7,0,28.4,0h743.1c15.7,0,28.4,12.7,28.4,28.4v543.1
	C799.9,587.2,787.2,600,771.5,600z"/>
<text transform="matrix(1 0 0 1 140.9728 43.615)" class="st1 st2 st3">Pre-Seed Funding Allocation</text>
<text transform="matrix(1 0 0 1 270.1041 69.6455)" class="st4 st5 st6">€10,000 initial invertment</text>
<text transform="matrix(1 0 0 1 326.2769 144.6159)" class="st7 st5 st8">Operations</text>
<text transform="matrix(1 0 0 1 363.358 163.4816)" class="st7 st2 st8">5%</text>
<text transform="matrix(1 0 0 1 443.8194 154.0485)" class="st7 st5 st8">Marketing</text>
<text transform="matrix(1 0 0 1 452.6251 172.9142)" class="st7 st2 st8">10%</text>
<text transform="matrix(1 0 0 1 572.6584 268.1725)" class="st7 st5 st8">IP Protection</text>
<text transform="matrix(1 0 0 1 581.1183 287.0378)" class="st7 st2 st8">15%</text>
<text transform="matrix(1 0 0 1 555.4064 491.818)" class="st7 st5 st8">Software Development</text>
<text transform="matrix(1 0 0 1 555.4064 473.0641)" class="st7 st2 st8">30%</text>
<text transform="matrix(1 0 0 1 53.5338 440.0055)" class="st7 st5 st8">Product Development</text>
<text transform="matrix(1 0 0 1 175.6192 422.1735)" class="st7 st2 st8">40%</text>
<path class="st9" d="M221.7,491.5H115.3c-4.5,0-8.2-5-8.2-11.2v-19.7c0-6.2,3.7-11.2,8.2-11.2h106.4c4.5,0,8.2,5,8.2,11.2v19.7
	C230,486.5,226.3,491.5,221.7,491.5z"/>
<path class="st10" d="M607.1,135.4h-156c-3,0-5.6-2.8-5.6-6.4v-11.2c0-3.5,2.5-6.4,5.6-6.4h156c3,0,5.6,2.8,5.6,6.4V129
	C612.7,132.5,610.2,135.4,607.1,135.4z"/>
<path class="st11" d="M739.6,246.2H561.8c-3.5,0-6.4-2.8-6.4-6.4v-11.2c0-3.5,2.8-6.4,6.4-6.4h177.8c3.5,0,6.4,2.8,6.4,6.4v11.2
	C746,243.4,743.2,246.2,739.6,246.2z"/>
<text transform="matrix(1 0 0 1 115.2242 466.2769)" class="st12 st13 st14">NFC Prototyping,</text>
<text transform="matrix(1 0 0 1 125.1979 482.5085)" class="st12 st13 st14">Manufacturing</text>
<g>
	<path class="st15" d="M701.9,523.4H560.5c-2.8,0-5.1-2.8-5.1-6.4v-11.2c0-3.5,2.2-6.4,5.1-6.4h141.3c2.8,0,5.1,2.8,5.1,6.4V517
		C706.8,520.5,704.6,523.4,701.9,523.4z"/>
	<text transform="matrix(1 0 0 1 562.8489 515.5662)" class="st12 st13 st14">Core App Functionality</text>
</g>
<text transform="matrix(1 0 0 1 560.1388 239.3703)" class="st7 st13 st14">Provisional Patent, Trademark</text>
<text transform="matrix(1 0 0 1 449.7311 127.6183)" class="st7 st13 st14">Waiting list growth, Assets</text>
<path class="st16" d="M417.2,127.6H279.6c-2.7,0-4.9-2.8-4.9-6.4v-11.2c0-3.5,2.2-6.4,4.9-6.4h137.6c2.7,0,4.9,2.8,4.9,6.4v11.2
	C422,124.8,419.9,127.6,417.2,127.6z"/>
<text transform="matrix(1 0 0 1 284.0101 122.863)" class="st7 st13 st14">Legal, Administrative</text>
<path class="st15" d="M400.4,350.5"/>
<g>
	<path class="st17" d="M490,360.2c30.1-0.2,60.2-0.5,90.3-0.8C550.2,359.7,520.1,359.9,490,360.2C490,360.2,490,360.2,490,360.2z"/>
	<path class="st9" d="M311.2,360.4c0-39.5,25.6-73,61.1-84.8l-27.5-86c-72,23.5-124,91.1-124,170.9c0,79.6,51.7,147.1,123.3,170.7
		l27.9-85.9C336.7,433.3,311.2,399.8,311.2,360.4z"/>
	<path class="st15" d="M490,360.2c0,0.1,0,0.1,0,0.2c0,49.4-40,89.4-89.4,89.4c-9.9,0-19.5-1.6-28.4-4.6L344.2,531
		c17.7,5.8,36.6,9.1,56.4,9.1c99.2,0,179.7-80.5,179.7-179.7c0-0.3,0-0.6,0-0.9C550.2,359.7,520.1,360,490,360.2z"/>
	<path class="st10" d="M400.6,271c19.6,0,37.7,6.3,52.4,17c17.8-24.3,35.6-48.6,53.4-72.9c-29.7-21.6-66.3-34.4-105.7-34.4
		c-0.4,0-0.7,0-1,0c0,30.1,0,60.2,0,90.3C399.9,271,400.2,271,400.6,271z"/>
	<path class="st11" d="M490,360.1c30.1-0.2,60.2-0.5,90.3-0.7c-0.3-59.3-29.4-111.9-74-144.4c-17.8,24.3-35.6,48.6-53.3,72.9
		C475.3,304.2,489.9,330.4,490,360.1z"/>
	<path class="st11" d="M453,288c17.8-24.3,35.5-48.6,53.3-72.9C488.5,239.4,470.7,263.6,453,288C452.9,287.9,453,287.9,453,288z"/>
	<path class="st16" d="M399.5,180.7L399.5,180.7L399.5,180.7c-19.1,0.1-37.5,3.2-54.8,8.9l27.5,86c8.6-2.9,17.7-4.5,27.3-4.6
		C399.5,240.9,399.5,210.8,399.5,180.7z"/>
	<path class="st16" d="M399.5,271L399.5,271c0-30.1,0-60.2,0-90.3h0C399.5,210.8,399.5,240.9,399.5,271z"/>
</g>
</svg>
